<svg width="17" height="17" viewBox="0 0 17 17" fill="none" xmlns="http://www.w3.org/2000/svg">
<path d="M8.20077 5.46667C9.71027 5.46667 10.9341 6.69035 10.9341 8.2C10.9341 9.70948 9.71027 10.9333 8.20077 10.9333C6.6911 10.9333 5.46741 9.70948 5.46741 8.2C5.46741 6.69035 6.6911 5.46667 8.20077 5.46667Z" fill="black"/>
<path fill-rule="evenodd" clip-rule="evenodd" d="M8.20077 1.47771C10.3902 1.47771 10.6497 1.48557 11.5143 1.52486C12.3138 1.56142 12.7477 1.69501 13.0368 1.80725C13.4194 1.95587 13.6923 2.13354 13.9791 2.42054C14.2661 2.70754 14.4438 2.98087 14.5927 3.36354C14.705 3.65225 14.8387 4.08616 14.8751 4.88566C14.9144 5.75008 14.923 6.00975 14.923 8.19812C14.923 10.3865 14.9144 10.6462 14.8751 11.5106C14.8386 12.3101 14.705 12.744 14.5927 13.0327C14.4441 13.4154 14.2661 13.6878 13.9791 13.9747C13.6921 14.2617 13.4196 14.4393 13.0368 14.588C12.7481 14.7007 12.3138 14.834 11.5143 14.8705C10.6499 14.9098 10.3902 14.9184 8.20077 14.9184C6.01117 14.9184 5.75168 14.9098 4.88725 14.8705C4.08774 14.8336 3.65382 14.7 3.3646 14.5878C2.98193 14.4392 2.70859 14.2615 2.42159 13.9745C2.13458 13.6875 1.95692 13.4149 1.80795 13.032C1.69571 12.7433 1.56195 12.3094 1.52556 11.5099C1.48627 10.6455 1.47841 10.3858 1.47841 8.19607C1.47841 6.00633 1.48627 5.74803 1.52556 4.88361C1.56212 4.08411 1.69571 3.6502 1.80795 3.36115C1.95657 2.97848 2.13458 2.70515 2.42159 2.41815C2.70859 2.13115 2.98193 1.95348 3.3646 1.80451C3.65365 1.69176 4.08774 1.55851 4.88725 1.52178C5.64371 1.48762 5.93686 1.47737 7.46515 1.47566V1.47771C7.60799 1.47748 7.76165 1.47755 7.92746 1.47763L8.20077 1.47771ZM11.5939 3.82291C11.5939 3.27949 12.0346 2.83925 12.5779 2.83925C13.1212 2.83925 13.5619 3.27966 13.5619 3.82291C13.5619 4.36616 13.1212 4.80691 12.5779 4.80691C12.0346 4.80691 11.5939 4.36616 11.5939 3.82291ZM3.98968 8.2C3.98968 5.87445 5.87519 3.98896 8.20077 3.98896C10.5263 3.98896 12.4112 5.87445 12.4112 8.2C12.4112 10.5256 10.5263 12.4102 8.20077 12.4102C5.87519 12.4102 3.98968 10.5256 3.98968 8.2Z" fill="black"/>
<path fill-rule="evenodd" clip-rule="evenodd" d="M8.20077 0C5.97376 0 5.69428 0.00973766 4.8196 0.0495418C3.94663 0.0895168 3.35076 0.227721 2.82937 0.4305C2.29004 0.639942 1.83255 0.920108 1.37676 1.37606C0.92063 1.83185 0.640461 2.28934 0.430333 2.82849C0.22704 3.35004 0.0886633 3.94608 0.0493713 4.8187C0.01025 5.69336 0 5.97302 0 8.2C0 10.427 0.0099086 10.7056 0.0495423 11.5803C0.0896886 12.4532 0.227894 13.0491 0.430505 13.5705C0.640119 14.1098 0.920289 14.5673 1.37625 15.0231C1.83186 15.4792 2.28936 15.7601 2.82835 15.9695C3.35008 16.1723 3.94612 16.3105 4.81892 16.3505C5.69359 16.3903 5.97291 16.4 8.19974 16.4C10.4269 16.4 10.7056 16.3903 11.5802 16.3505C12.4532 16.3105 13.0498 16.1723 13.5715 15.9695C14.1106 15.7601 14.5675 15.4792 15.0231 15.0231C15.4792 14.5673 15.7594 14.1098 15.9695 13.5707C16.1711 13.0491 16.3095 12.4531 16.3505 11.5805C16.3897 10.7058 16.4 10.427 16.4 8.2C16.4 5.97302 16.3897 5.69353 16.3505 4.81887C16.3095 3.94591 16.1711 3.35004 15.9695 2.82866C15.7594 2.28934 15.4792 1.83185 15.0231 1.37606C14.5669 0.919937 14.1108 0.639771 13.571 0.4305C13.0482 0.227721 12.452 0.0895168 11.579 0.0495418C10.7044 0.00973766 10.4259 0 8.19821 0H8.20077ZM7.92746 1.47763L8.20077 1.47771C10.3902 1.47771 10.6497 1.48557 11.5143 1.52486C12.3138 1.56142 12.7477 1.69501 13.0368 1.80725C13.4194 1.95587 13.6923 2.13354 13.9791 2.42054C14.2661 2.70754 14.4438 2.98087 14.5927 3.36354C14.705 3.65225 14.8387 4.08616 14.8751 4.88566C14.9144 5.75008 14.923 6.00975 14.923 8.19812C14.923 10.3865 14.9144 10.6462 14.8751 11.5106C14.8386 12.3101 14.705 12.744 14.5927 13.0327C14.4441 13.4154 14.2661 13.6878 13.9791 13.9747C13.6921 14.2617 13.4196 14.4393 13.0368 14.588C12.7481 14.7007 12.3138 14.834 11.5143 14.8705C10.6499 14.9098 10.3902 14.9184 8.20077 14.9184C6.01117 14.9184 5.75168 14.9098 4.88725 14.8705C4.08774 14.8336 3.65382 14.7 3.3646 14.5878C2.98193 14.4392 2.70859 14.2615 2.42159 13.9745C2.13458 13.6875 1.95692 13.4149 1.80795 13.032C1.69571 12.7433 1.56195 12.3094 1.52556 11.5099C1.48627 10.6455 1.47841 10.3858 1.47841 8.19607C1.47841 6.00633 1.48627 5.74803 1.52556 4.88361C1.56212 4.08411 1.69571 3.6502 1.80795 3.36115C1.95657 2.97848 2.13458 2.70515 2.42159 2.41815C2.70859 2.13115 2.98193 1.95348 3.3646 1.80451C3.65365 1.69176 4.08774 1.55851 4.88725 1.52178C5.64371 1.48762 5.93686 1.47737 7.46515 1.47566V1.47771C7.60799 1.47748 7.76165 1.47755 7.92746 1.47763Z" fill="black"/>
</svg>
